<?xml version="1.0" encoding="utf-8"?>
<svg version="1.1" xmlns="http://www.w3.org/2000/svg" xmlns:xlink="http://www.w3.org/1999/xlink" x="0px" y="0px"
	 viewBox="0 0 30 30" style="enable-background:new 0 0 30 30;" xml:space="preserve">
<defs>
  <style type="text/css">
    .st194{fill:#2D2D2D;stroke:#FFFFFF;stroke-width:0.6317;stroke-miterlimit:10;}
    .st23{fill:#FFFFFF;}

    .g-breathe {
      animation: breathe 2.5s ease-in-out infinite;
    }

    @keyframes breathe {
      0%, 100% { opacity: 0.7; }
      50% { opacity: 1; }
    }
  </style>
</defs>

<g>
  <path class="st194" d="M24.51,28.51H5.49c-2.21,0-4-1.79-4-4V5.49c0-2.21,1.79-4,4-4h19.03c2.21,0,4,1.79,4,4v19.03
    C28.51,26.72,26.72,28.51,24.51,28.51z"/>
  <g class="g-breathe">
    <path class="st23" d="M15,4.8c-5.63,0-10.2,4.57-10.2,10.2S9.37,25.2,15,25.2c5.06,0,9.26-3.69,10.06-8.52
      c0.08-0.49-0.3-0.94-0.8-0.94h-8.06v3.13h4.83c-0.91,1.98-2.9,3.35-5.21,3.35c-3.17,0-5.74-2.57-5.74-5.74S12.65,10.74,15,10.74
      c1.61,0,3.02,0.66,4.05,1.7l2.22-2.22C19.63,6.98,17.44,4.8,15,4.8z"/>
  </g>
</g>
</svg>
